<svg xmlns="http://www.w3.org/2000/svg" viewBox="0 0 24 24" id="csswi-zardry"><path fill="#EF3359" d="M23.416 18.487c-.035-.596-.3-1.021-.784-1.272-.313-.164-.718-.248-1.195-.248-.541 0-.957.11-1.272.322a1.042 1.042 0 0 0-.479.901c0 .355.166.619.478.794.22.105.651.254 1.312.404l1.723.409c.274.055.512.134.734.208v-1.517h-.517z"></path><path fill="#EF3359" d="M.06 16.529c.777-.699 1.753-1.059 2.915-1.059 1.673 0 2.897.549 3.67 1.648.427.619.657 1.24.687 1.858H5.249c-.13-.475-.311-.835-.521-1.075-.391-.433-.941-.643-1.693-.643-.761 0-1.342.297-1.793.909-.431.609-.661 1.458-.661 2.577 0 1.105.224 1.94.689 2.497.314.401.701.654 1.152.759h1.229a1.821 1.821 0 0 0 1.022-.644c.213-.252.386-.639.526-1.149h2.056a4.744 4.744 0 0 1-.664 1.788h2.093c-.215-.429-.32-.921-.32-1.478h2.02c.06.449.19.793.371 1.013.17.209.407.359.691.464h2.244c.581-.21.881-.579.881-1.149 0-.33-.15-.579-.431-.759-.3-.18-.751-.33-1.362-.464l-1.047-.24c-1.032-.237-1.751-.489-2.153-.759-.671-.461-1.002-1.179-1.002-2.147 0-.879.33-1.625.972-2.207.659-.579 1.601-.879 2.858-.879 1.047 0 1.929.285 2.674.834.736.55 1.122 1.356 1.152 2.401h-2.003c-.04-.596-.297-1.03-.791-1.285-.331-.17-.721-.26-1.212-.26-.541 0-.962.1-1.292.31-.311.21-.471.509-.471.889 0 .34.15.609.461.789.21.12.641.26 1.302.399l1.723.402c.749.182 1.316.419 1.691.716.587.465.887 1.135.887 2.013 0 .493-.11.926-.301 1.315h1.683c-.227-.434-.33-.913-.33-1.478h1.983c.06.462.18.788.36 1.012.18.196.404.346.691.449h2.214l.03-.016c.581-.193.871-.581.871-1.147 0-.328-.15-.581-.431-.764-.291-.16-.731-.327-1.362-.459l-1.052-.24c-1.032-.222-1.753-.476-2.143-.761-.671-.459-1.002-1.179-1.002-2.147 0-.896.321-1.625.972-2.222.65-.595 1.603-.895 2.859-.895.898 0 1.69.206 2.361.615V1.119A1.117 1.117 0 0 0 22.807 0H1.119C.501 0 0 .499 0 1.117v15.291l.01.012.05.109z"></path><path d="m23.95 20.056.05-.03-.067-.022v.035l.017.017z"></path></svg>